<svg width="88" height="89" viewBox="0 0 88 89" fill="none" xmlns="http://www.w3.org/2000/svg">
<path d="M29.3306 16.7119L43.7945 24.4634L17.052 74.3639L2.58805 66.6124L29.3306 16.7119Z" fill="url(#paint0_linear_11_494)"/>
<path d="M0 88.0954L2.627 66.3335L17.0614 74.3335L0 88.0954Z" fill="url(#paint1_linear_11_494)"/>
<path d="M38.7608 0L53.2244 7.75206L45.8599 21.4925L31.3964 13.7404L38.7608 0Z" fill="url(#paint2_linear_11_494)"/>
<path d="M85.7985 19.3712L85.9372 27.5284L53.4714 28.0804L53.3328 19.9232L85.7985 19.3712ZM62.54 4.753L72.1655 4.58936L73.1807 64.3003C73.2269 67.0193 73.6558 69.052 74.4675 70.3981C75.3058 71.7165 76.3543 72.5963 77.613 73.0373C78.8984 73.4506 80.248 73.6452 81.6619 73.6213C82.7223 73.6032 83.5915 73.534 84.2695 73.4137C84.9469 73.2662 85.4889 73.1482 85.8954 73.0597L88 81.673C87.3517 81.9289 86.4449 82.189 85.2799 82.4536C84.1153 82.7454 82.6358 82.9066 80.8412 82.9371C78.1221 82.9834 75.4474 82.444 72.8172 81.3192C70.2142 80.1939 68.0359 78.4494 66.2822 76.0858C64.5556 73.7217 63.6615 70.7178 63.5995 67.0742L62.54 4.753Z" fill="url(#paint3_linear_11_494)"/>
<defs>
<linearGradient id="paint0_linear_11_494" x1="0.217146" y1="87.7938" x2="45.9926" y2="3.87604" gradientUnits="userSpaceOnUse">
<stop offset="0.47" stop-color="#FF7E5F"/>
<stop offset="0.87" stop-color="#FFDAB9"/>
</linearGradient>
<linearGradient id="paint1_linear_11_494" x1="0.217146" y1="87.7938" x2="45.9926" y2="3.87604" gradientUnits="userSpaceOnUse">
<stop offset="0.47" stop-color="#FF7E5F"/>
<stop offset="0.87" stop-color="#FFDAB9"/>
</linearGradient>
<linearGradient id="paint2_linear_11_494" x1="0.217146" y1="87.7938" x2="45.9926" y2="3.87604" gradientUnits="userSpaceOnUse">
<stop offset="0.47" stop-color="#FF7E5F"/>
<stop offset="0.87" stop-color="#FFDAB9"/>
</linearGradient>
<linearGradient id="paint3_linear_11_494" x1="53.4742" y1="82.6716" x2="99.8676" y2="20.3844" gradientUnits="userSpaceOnUse">
<stop offset="0.47" stop-color="#FF7E5F"/>
<stop offset="0.87" stop-color="#FFDAB9"/>
</linearGradient>
</defs>
</svg>
