<svg width="24" height="27" viewBox="0 0 24 27" fill="none" xmlns="http://www.w3.org/2000/svg">
<path d="M21.3333 24H2.66667V9.33333H21.3333M17.3333 0V2.66667H6.66667V0H4V2.66667H2.66667C1.18667 2.66667 0 3.85333 0 5.33333V24C0 24.7072 0.280951 25.3855 0.781048 25.8856C1.28115 26.3857 1.95942 26.6667 2.66667 26.6667H21.3333C22.0406 26.6667 22.7189 26.3857 23.219 25.8856C23.719 25.3855 24 24.7072 24 24V5.33333C24 4.62609 23.719 3.94781 23.219 3.44772C22.7189 2.94762 22.0406 2.66667 21.3333 2.66667H20V0M18.6667 14.6667H12V21.3333H18.6667V14.6667Z" fill="#4E54C8"/>
</svg>
